<svg width="20" height="18" viewBox="0 0 20 18" fill="none" xmlns="http://www.w3.org/2000/svg">
<path d="M4.11986 6.84105C4.36387 5.16305 6.28111 3.37064 7.78005 3.3325C7.88463 3.3325 7.9892 3.29437 8.05892 3.21809C8.12864 3.17996 8.19836 3.14182 8.23322 3.02741C8.7561 1.95959 8.47723 1.12059 7.60575 0.434138C6.59484 -0.366726 4.99133 0.434138 4.18958 1.15873C2.16776 2.98928 0.111078 6.15453 0.215654 9.16737C-0.132935 11.1887 -0.0632172 13.3624 0.459667 15.1548C0.808257 16.2989 1.81917 16.8709 2.86494 16.9472C3.9107 17.0235 6.07196 17.3667 7.01315 16.6803C7.95434 15.9938 8.02406 14.659 8.12864 13.515C8.23321 12.2565 8.54695 9.89196 7.57089 8.90042C6.59484 7.94701 3.80613 8.97669 4.11986 6.84105Z" fill="#5474FD"/>
<path d="M15.6233 6.84105C15.8673 5.16305 17.7845 3.37064 19.2835 3.3325C19.388 3.3325 19.4926 3.29437 19.5623 3.21809C19.6321 3.17996 19.7018 3.14182 19.7367 3.02741C20.2596 1.95959 19.9807 1.12059 19.1092 0.434138C18.0983 -0.366726 16.4948 0.434138 15.693 1.15873C13.6712 2.98928 11.6145 6.1546 11.7191 9.16737C11.3705 11.1887 11.4402 13.3624 11.963 15.1548C12.3116 16.2989 13.3225 16.8709 14.3684 16.9472C15.4141 17.0235 17.5754 17.3667 18.5166 16.6803C19.4577 15.9938 19.5275 14.659 19.6321 13.515C19.7366 12.2565 20.0504 9.89196 19.0743 8.90042C18.0983 7.94701 15.2747 8.97669 15.6233 6.84105Z" fill="#5474FD"/>
</svg>
